<svg xmlns="http://www.w3.org/2000/svg" version="1.1" xmlns:xlink="http://www.w3.org/1999/xlink" viewBox="0 0 21.334958838988417 7.630680344115367"><g transform="matrix(1,0,0,1,6.995665624043147,2.6363447274554135)"><g clip-path="url(#SvgjsClipPath1001)"><path d=" M -5.960650903970926 1.1789954446022701 C -5.960650903970926 -0.3565359020957084 -4.7158567986834425 -1.6013300073831922 -3.180325451985464 -1.6013300073831926 C -1.6447941052874855 -1.6013300073831926 -0.40000000000000036 -0.3565359020957093 -0.40000000000000036 1.1789954446022692 C -0.40000000000000036 2.7145267913002478 -1.6447941052874846 3.959320896587733 -3.180325451985463 3.959320896587733 C -4.715856798683442 3.959320896587733 -5.960650903970925 2.7145267913002487 -5.960650903970926 1.1789954446022706 Z M -5.827195282275624 1.1789954446022701 C -5.827195282275623 2.6408212866587455 -4.6421512940419385 3.82586527489243 -3.180325451985463 3.82586527489243 C -1.7184996099289878 3.82586527489243 -0.5334556216953033 2.6408212866587455 -0.5334556216953033 1.1789954446022701 C -0.5334556216953033 -0.2828303974542057 -1.7184996099289878 -1.4678743856878904 -3.180325451985463 -1.4678743856878904 C -4.6421512940419385 -1.4678743856878904 -5.827195282275623 -0.2828303974542059 -5.827195282275624 1.1789954446022692 Z" fill="#8813ea" transform="matrix(1,0,0,1,0,0)" fill-rule="nonzero"></path><g clip-path="url(#SvgjsClipPath1000ad56f139-489a-4ccd-80c3-fae104ccccd5)"><path d=" M -3.4498593207684167 1.1255423532316322 L -4.1140387009221815 1.5092529558128023 C -4.117412236612601 1.5112305457002906 -4.121251087570667 1.5122193406440347 -4.125148102937189 1.5122193406440347 L -4.61215869493539 1.5122193406440347 C -4.634900978641505 1.5122193406440347 -4.642927667008369 1.4821483414725223 -4.623268096950397 1.470748117415238 L -4.130266570881275 1.1859170092084783 C -4.123403170683522 1.1819618294335017 -4.119157168866268 1.1746331139681043 -4.119157168866268 1.1666645900096961 L -4.119157168866268 1.0873283368763453 C -4.119157168866268 0.7827213297947035 -3.9948016635883326 0.5062658964055413 -3.795065084952022 0.30635482454386476 C -3.594805026639612 0.10592027300608864 -3.318582250884272 -0.0184933966803027 -3.0147895455210083 -0.0184933966803027 L -1.7484340446270812 -0.0184933966803027 C -1.736161354442963 -0.0184933966803027 -1.7262152405970665 -0.008547282834405978 -1.7262152405970665 0.00372540734971194 L -1.7262152405970665 1.2706625523281945 C -1.7262152405970665 1.3362720050660384 -1.731915352625709 1.4003110187755836 -1.7428502614153496 1.4627795934568293 C -1.7459911394719487 1.479414614275112 -1.749073853120092 1.4955843198257512 -1.7527382108527911 1.5122193406440347 C -1.799560559659497 1.719982607647209 -1.9051871254147503 1.9058178926626463 -2.050830804187412 2.0516360646606744 C -2.250567382823723 2.2520706161984507 -2.5268483229875187 2.3765424502932975 -2.8311645080268817 2.3765424502932975 L -4.096938364836253 2.3765424502932975 C -4.1092110550203715 2.3765424502932975 -4.119157168866268 2.3665963364474014 -4.119157168866268 2.354323646263283 L -4.119157168866268 1.8577740912783738 C -4.119157168866268 1.8498637317284206 -4.114911167049014 1.8425350162630227 -4.108047766851261 1.8385798364880466 L -3.848692669548026 1.6883411694473978 C -3.8410149676318954 1.683920674404777 -3.8314760046451872 1.6894462932080523 -3.8314760046451872 1.6982872832932938 L -3.8314760046451872 2.066409824408381 C -3.8314760046451872 2.0786825145924985 -3.8215298907992907 2.0886286284383955 -3.8092572006151726 2.0886286284383955 L -3.06818447248319 2.0886286284383955 C -3.0559117822990722 2.0886286284383955 -3.0459656684531753 2.0786825145924985 -3.0459656684531753 2.066409824408381 L -3.0459656684531753 1.3584908090960535 C -3.0459656684531753 1.3505222851376448 -3.0502116702704303 1.343193569672248 -3.057075070468183 1.3392383898972713 L -3.4275823523299467 1.125600517640088 C -3.4344457525277 1.1216453378651114 -3.442937756162208 1.1216453378651114 -3.4498011563599613 1.125600517640088 Z M -3.827869811320944 1.0108421397573157 L -3.4498593207684167 0.7923766215983226 C -3.442995920570663 0.7884214418233464 -3.434503916936155 0.7884214418233464 -3.427640516738402 0.7923766215983226 L -3.079352038906653 0.9936836392629327 C -3.0645201147504912 1.0022338073058958 -3.046023832861631 0.9915315561500773 -3.046023832861631 0.9744312200641505 L -3.046023832861631 0.7862693587104919 C -3.046023832861631 0.7739966685263737 -3.036077719015734 0.7640505546804772 -3.0238050288316165 0.7640505546804772 L -2.7805614726705654 0.7640505546804772 C -2.768288782486447 0.7640505546804772 -2.7583426686405508 0.7739966685263737 -2.7583426686405508 0.7862693587104919 L -2.7583426686405508 1.1667227544181515 C -2.7583426686405508 1.1746331139681048 -2.7540966668232962 1.1819618294335017 -2.747233266625543 1.1859751736169337 L -2.254231740556421 1.4708062818236929 C -2.2345721704984496 1.4821483414725223 -2.2425988588653136 1.5122775050524897 -2.2653411425714283 1.5122775050524897 L -2.736123864610536 1.5122775050524897 C -2.748396554794654 1.5122775050524897 -2.7583426686405508 1.5222236188983866 -2.7583426686405508 1.5344963090825043 L -2.7583426686405508 2.060302561520549 C -2.7583426686405508 2.073622211056867 -2.746651622540988 2.083975475761952 -2.7333901374131258 2.082405036733653 C -2.547729345623055 2.060244397112094 -2.3807393289472114 1.9746845522740006 -2.254231740556421 1.8481187994747539 C -2.10597066340326 1.6997413935046826 -2.0144198844942465 1.495642484234207 -2.0144198844942465 1.2707207167366499 L -2.0144198844942465 0.2921627088807144 C -2.0144198844942465 0.27989001869659647 -2.024365998340143 0.26994390485069975 -2.036638688524261 0.26994390485069975 L -3.0147895455210083 0.26994390485069975 C -3.239013340117099 0.26994390485069975 -3.4429377561622077 0.3615528481681687 -3.5911988333153686 0.5099884185466963 C -3.722301409974146 0.641207324022385 -3.8096643514743613 0.8166311799242814 -3.827869811320944 1.0108421397573157 L -3.827869811320944 1.0108421397573157 Z" fill="#7911d1" transform="matrix(1,0,0,1,0,0)" fill-rule="evenodd"></path></g></g><g><path d=" M 0.11601 1.295445 L 0.11601 1.2645089999999999 L 0.2726235 1.187169 L 0.2726235 0.12761099999999992 L 0.11601 0.050270999999999955 L 0.11601 0.01933499999999988 L 0.6535230000000001 0.01933499999999988 Q 0.8565405 0.01933499999999988 0.97351725 0.10344224999999985 Q 1.090494 0.1875494999999998 1.090494 0.33449549999999995 Q 1.090494 0.4427714999999999 1.017021 0.5259119999999999 Q 0.943548 0.6090524999999999 0.823671 0.653523 L 1.1891025000000002 1.1929695 L 1.3186470000000001 1.2645089999999999 L 1.3186470000000001 1.295445 L 1.0073535 1.295445 L 0.6361215 0.7076609999999999 L 0.47564100000000004 0.7076609999999999 L 0.47564100000000004 1.1852354999999999 L 0.6206535000000001 1.2645089999999999 L 0.6206535000000001 1.295445 L 0.11601 1.295445 M 0.5897175 0.1256774999999999 L 0.47564100000000004 0.1256774999999999 L 0.47564100000000004 0.6051854999999999 L 0.6013185 0.6051854999999999 Q 0.7211955 0.6051854999999999 0.7995022500000001 0.5365462499999999 Q 0.8778090000000001 0.46790699999999996 0.8778090000000001 0.36156449999999996 Q 0.8778090000000001 0.251355 0.80143575 0.18851624999999994 Q 0.7250625 0.1256774999999999 0.5897175 0.1256774999999999 M 1.4230597763671875 1.295445 L 1.4230597763671875 1.2645089999999999 L 1.5796732763671875 1.187169 L 1.5796732763671875 0.12761099999999992 L 1.4230597763671875 0.050270999999999955 L 1.4230597763671875 0.01933499999999988 L 2.3936767763671876 0.01933499999999988 L 2.3936767763671876 0.3518969999999999 L 2.362740776367188 0.3518969999999999 L 2.237063276367188 0.1256774999999999 L 1.7826907763671875 0.1256774999999999 L 1.7826907763671875 0.5839169999999999 L 2.1036517763671876 0.5839169999999999 L 2.2022602763671877 0.42150299999999996 L 2.2331962763671878 0.42150299999999996 L 2.2331962763671878 0.8488064999999999 L 2.2022602763671877 0.8488064999999999 L 2.1036517763671876 0.6902594999999999 L 1.7826907763671875 0.6902594999999999 L 1.7826907763671875 1.1891025 L 2.2892677763671876 1.1891025 L 2.4168787763671875 0.9338804999999999 L 2.4478147763671876 0.9338804999999999 L 2.4478147763671876 1.295445 L 1.4230597763671875 1.295445 M 2.6372911677246096 1.295445 L 2.6372911677246096 1.2645089999999999 L 2.7591016677246096 1.2007035 L 3.2560111677246093 0.00966749999999994 L 3.3623536677246095 0.00966749999999994 L 3.8534626677246093 1.194903 L 3.9830071677246095 1.2645089999999999 L 3.9830071677246095 1.295445 L 3.4725631677246094 1.295445 L 3.4725631677246094 1.2645089999999999 L 3.6427111677246096 1.1968364999999999 L 3.4996321677246094 0.8488064999999999 L 3.0336586677246093 0.8488064999999999 L 2.8925131677246094 1.19877 L 3.0549271677246095 1.2645089999999999 L 3.0549271677246095 1.295445 L 2.6372911677246096 1.295445 M 3.0781291677246094 0.7424639999999999 L 3.4570951677246096 0.7424639999999999 L 3.2676121677246095 0.2764905 L 3.0781291677246094 0.7424639999999999 M 4.1550527922363285 1.295445 L 4.1550527922363285 1.2645089999999999 L 4.311666292236328 1.187169 L 4.311666292236328 0.12761099999999992 L 4.1550527922363285 0.050270999999999955 L 4.1550527922363285 0.01933499999999988 L 4.690632292236328 0.01933499999999988 L 4.690632292236328 0.050270999999999955 L 4.514683792236329 0.12761099999999992 L 4.514683792236329 1.1891025 L 4.972923292236328 1.1891025 L 5.110201792236328 0.8565404999999999 L 5.141137792236329 0.8565404999999999 L 5.141137792236329 1.295445 L 4.1550527922363285 1.295445 M 5.864240357666016 1.295445 L 5.864240357666016 1.2645089999999999 L 6.020853857666015 1.187169 L 6.020853857666015 0.12761099999999992 L 5.864240357666016 0.050270999999999955 L 5.864240357666016 0.01933499999999988 L 6.834857357666015 0.01933499999999988 L 6.834857357666015 0.3518969999999999 L 6.803921357666016 0.3518969999999999 L 6.678243857666016 0.1256774999999999 L 6.223871357666016 0.1256774999999999 L 6.223871357666016 0.5839169999999999 L 6.5448323576660155 0.5839169999999999 L 6.6434408576660156 0.42150299999999996 L 6.674376857666015 0.42150299999999996 L 6.674376857666015 0.8488064999999999 L 6.6434408576660156 0.8488064999999999 L 6.5448323576660155 0.6902594999999999 L 6.223871357666016 0.6902594999999999 L 6.223871357666016 1.1891025 L 6.730448357666015 1.1891025 L 6.858059357666015 0.9338804999999999 L 6.8889953576660155 0.9338804999999999 L 6.8889953576660155 1.295445 L 5.864240357666016 1.295445 M 7.534777749023438 1.31478 Q 7.4129672490234375 1.31478 7.326926499023438 1.291578 Q 7.2408857490234375 1.268376 7.1500112490234375 1.2239054999999999 L 7.130676249023438 0.904878 L 7.161612249023438 0.904878 L 7.264087749023438 1.1156294999999998 Q 7.3317602490234375 1.1717009999999999 7.397499249023438 1.1968364999999999 Q 7.463238249023438 1.221972 7.528977249023438 1.221972 Q 7.641120249023438 1.221972 7.705892499023438 1.163967 Q 7.770664749023438 1.105962 7.770664749023438 1.00542 Q 7.770664749023438 0.9261465 7.734894999023438 0.87877575 Q 7.699125249023438 0.831405 7.628552499023438 0.79370175 Q 7.5579797490234375 0.7559984999999999 7.455504249023438 0.7057275 Q 7.318225749023438 0.6399885 7.244752749023438 0.56748225 Q 7.171279749023438 0.49497599999999986 7.171279749023438 0.3634979999999999 Q 7.171279749023438 0.2938919999999998 7.2051159990234375 0.22911974999999996 Q 7.238952249023438 0.16434749999999987 7.296957249023438 0.11310974999999979 Q 7.354962249023438 0.06187199999999993 7.426501749023438 0.030935999999999853 Q 7.498041249023438 -2.220446049250313e-16 7.575381249023438 -2.220446049250313e-16 Q 7.6662557490234375 -2.220446049250313e-16 7.745529249023438 0.021268499999999912 Q 7.824802749023438 0.042536999999999825 7.9021427490234375 0.08314049999999984 L 7.921477749023438 0.3925004999999999 L 7.890541749023438 0.3925004999999999 L 7.789999749023438 0.185616 Q 7.728127749023438 0.13727849999999986 7.677856749023438 0.11600999999999995 Q 7.627585749023438 0.09474149999999981 7.563780249023438 0.09474149999999981 Q 7.480639749023438 0.09474149999999981 7.425534999023438 0.15081299999999986 Q 7.370430249023438 0.20688449999999992 7.370430249023438 0.2919585 Q 7.370430249023438 0.38669999999999993 7.429401999023438 0.44083799999999995 Q 7.488373749023438 0.49497599999999986 7.619851749023438 0.5568479999999999 Q 7.735861749023438 0.6129195 7.812234999023438 0.6641572499999999 Q 7.888608249023438 0.7153949999999999 7.925344749023438 0.7792005 Q 7.962081249023438 0.8430059999999999 7.962081249023438 0.9416145 Q 7.962081249023438 1.032489 7.923411249023438 1.1020949999999998 Q 7.884741249023438 1.1717009999999999 7.8209357490234375 1.21907175 Q 7.7571302490234375 1.2664425 7.682690499023438 1.29061125 Q 7.608250749023438 1.31478 7.534777749023438 1.31478 M 8.426151459960938 1.295445 L 8.426151459960938 1.2645089999999999 L 8.621434959960938 1.187169 L 8.621434959960938 0.1256774999999999 L 8.315941959960938 0.1256774999999999 L 8.178663459960937 0.4176359999999999 L 8.147727459960938 0.4176359999999999 L 8.147727459960938 0.01933499999999988 L 9.296226459960938 0.01933499999999988 L 9.296226459960938 0.4176359999999999 L 9.265290459960937 0.4176359999999999 L 9.129945459960938 0.1256774999999999 L 8.822518959960938 0.1256774999999999 L 8.822518959960938 1.187169 L 9.019735959960938 1.2645089999999999 L 9.019735959960938 1.295445 L 8.426151459960938 1.295445 M 9.375474469482421 1.295445 L 9.375474469482421 1.2645089999999999 L 9.497284969482422 1.2007035 L 9.994194469482421 0.00966749999999994 L 10.100536969482421 0.00966749999999994 L 10.591645969482421 1.194903 L 10.721190469482423 1.2645089999999999 L 10.721190469482423 1.295445 L 10.210746469482421 1.295445 L 10.210746469482421 1.2645089999999999 L 10.380894469482422 1.1968364999999999 L 10.237815469482422 0.8488064999999999 L 9.771841969482422 0.8488064999999999 L 9.630696469482421 1.19877 L 9.793110469482421 1.2645089999999999 L 9.793110469482421 1.295445 L 9.375474469482421 1.295445 M 9.816312469482423 0.7424639999999999 L 10.195278469482421 0.7424639999999999 L 10.005795469482422 0.2764905 L 9.816312469482423 0.7424639999999999 M 11.078840764892579 1.295445 L 11.078840764892579 1.2645089999999999 L 11.27412426489258 1.187169 L 11.27412426489258 0.1256774999999999 L 10.96863126489258 0.1256774999999999 L 10.831352764892578 0.4176359999999999 L 10.80041676489258 0.4176359999999999 L 10.80041676489258 0.01933499999999988 L 11.948915764892579 0.01933499999999988 L 11.948915764892579 0.4176359999999999 L 11.917979764892578 0.4176359999999999 L 11.78263476489258 0.1256774999999999 L 11.47520826489258 0.1256774999999999 L 11.47520826489258 1.187169 L 11.67242526489258 1.2645089999999999 L 11.67242526489258 1.295445 L 11.078840764892579 1.295445 M 12.146118603515625 1.295445 L 12.146118603515625 1.2645089999999999 L 12.302732103515625 1.187169 L 12.302732103515625 0.12761099999999992 L 12.146118603515625 0.050270999999999955 L 12.146118603515625 0.01933499999999988 L 13.116735603515625 0.01933499999999988 L 13.116735603515625 0.3518969999999999 L 13.085799603515625 0.3518969999999999 L 12.960122103515625 0.1256774999999999 L 12.505749603515625 0.1256774999999999 L 12.505749603515625 0.5839169999999999 L 12.826710603515625 0.5839169999999999 L 12.925319103515625 0.42150299999999996 L 12.956255103515625 0.42150299999999996 L 12.956255103515625 0.8488064999999999 L 12.925319103515625 0.8488064999999999 L 12.826710603515625 0.6902594999999999 L 12.505749603515625 0.6902594999999999 L 12.505749603515625 1.1891025 L 13.012326603515625 1.1891025 L 13.139937603515625 0.9338804999999999 L 13.170873603515625 0.9338804999999999 L 13.170873603515625 1.295445 L 12.146118603515625 1.295445" fill="#2c0b40" fill-rule="nonzero"></path></g><g><path d=" M 0.24901961538461537 2.366263966127617 Q 0.20186307692307692 2.366263966127617 0.16256596153846153 2.3484768507430016 Q 0.12326884615384615 2.330689735358386 0.09389942307692307 2.299252043050694 Q 0.06453 2.2678143507430018 0.048397499999999996 2.2272762738199248 Q 0.032265 2.186738196896848 0.032265 2.141236273819925 Q 0.032265 2.0800155045891557 0.059566153846153845 2.0295497353583865 Q 0.08686730769230769 1.9790839661276172 0.13567846153846153 1.9493008892045403 Q 0.1844896153846154 1.9195178122814633 0.24819230769230768 1.9195178122814633 Q 0.30858576923076925 1.9195178122814633 0.354915 1.947232619973771 Q 0.40124423076923077 1.9749474276660788 0.42358153846153845 2.022103966127617 L 0.3689792307692308 2.0394774276660788 Q 0.35077846153846154 2.0063851199737712 0.31809980769230767 1.987770696896848 Q 0.28542115384615385 1.9691562738199249 0.2457103846153846 1.9691562738199249 Q 0.2026903846153846 1.9691562738199249 0.16711615384615383 1.9914935815122325 Q 0.13154192307692308 2.0138308892045402 0.11044557692307692 2.0527143507430017 Q 0.08934923076923076 2.0915978122814636 0.08934923076923076 2.141236273819925 Q 0.08934923076923076 2.190047427666079 0.11085923076923077 2.229758196896848 Q 0.13236923076923077 2.2694689661276173 0.16794346153846154 2.2930472353583866 Q 0.20351769230769232 2.3166255045891555 0.2465376923076923 2.3166255045891555 Q 0.27466615384615384 2.3166255045891555 0.30072634615384614 2.306697812281463 Q 0.32678653846153843 2.296770119973771 0.3462282692307692 2.2798103122814632 Q 0.36567 2.2628505045891556 0.3722884615384615 2.242995119973771 L 0.4277180769230769 2.259541273819925 Q 0.4161357692307692 2.2901516584353097 0.3892482692307692 2.3145572353583863 Q 0.3623607692307692 2.3389628122814634 0.3263728846153846 2.3526133892045404 Q 0.290385 2.366263966127617 0.24901961538461537 2.366263966127617 M 0.879437367976262 2.3579908892045403 L 0.823180444899339 2.3579908892045403 L 0.823180444899339 2.1172443507430017 Q 0.823180444899339 2.044441273819925 0.7975339064378004 2.0076260815122327 Q 0.771887367976262 1.9708108892045404 0.7239035218224159 1.9708108892045404 Q 0.6924658295147236 1.9708108892045404 0.6614417910531851 1.9869433892045403 Q 0.6304177525916467 2.00307588920454 0.6068394833608775 2.030790696896848 Q 0.5832612141301081 2.0585055045891556 0.5733335218224158 2.0940797353583864 L 0.5733335218224158 2.3579908892045403 L 0.5170765987454928 2.3579908892045403 L 0.5170765987454928 1.7540562738199248 L 0.5733335218224158 1.7540562738199248 L 0.5733335218224158 2.0245858892045403 Q 0.5989800602839543 1.976602043050694 0.6448956372070312 1.9480599276660788 Q 0.6908112141301082 1.9195178122814633 0.7429315987454927 1.9195178122814633 Q 0.7801604448993389 1.9195178122814633 0.8062206372070313 1.9327547353583865 Q 0.8322808295147235 1.9459916584353094 0.8484133295147236 1.971224543050694 Q 0.8645458295147236 1.9964574276660787 0.8719915987454928 2.02996338920454 Q 0.879437367976262 2.0634693507430018 0.879437367976262 2.1056620430506943 L 0.879437367976262 2.3579908892045403 M 1.1838930620868389 2.366263966127617 Q 1.1375638313176082 2.366263966127617 1.0982667159329929 2.3484768507430016 Q 1.0589696005483775 2.330689735358386 1.030427485163762 2.299665696896848 Q 1.0018853697791466 2.2686416584353095 0.9861665236253006 2.228517235358386 Q 0.9704476774714543 2.1883928122814633 0.9704476774714543 2.143718196896848 Q 0.9704476774714543 2.097388966127617 0.9861665236253006 2.057264543050694 Q 1.0018853697791466 2.017140119973771 1.030841139009916 1.9861160815122325 Q 1.059796908240685 1.9550920430506942 1.0990940236253004 1.9373049276660788 Q 1.138391139009916 1.9195178122814633 1.1847203697791466 1.9195178122814633 Q 1.2310496005483773 1.9195178122814633 1.269933062086839 1.9373049276660788 Q 1.3088165236253004 1.9550920430506942 1.3377722928560698 1.9861160815122325 Q 1.366728062086839 2.017140119973771 1.3824469082406852 2.057264543050694 Q 1.3981657543945314 2.097388966127617 1.3981657543945314 2.143718196896848 Q 1.3981657543945314 2.1883928122814633 1.3824469082406852 2.228517235358386 Q 1.366728062086839 2.2686416584353095 1.3381859467022235 2.299665696896848 Q 1.3096438313176082 2.330689735358386 1.2703467159329929 2.3484768507430016 Q 1.2310496005483773 2.366263966127617 1.1838930620868389 2.366263966127617 M 1.027531908240685 2.1445455045891557 Q 1.027531908240685 2.1925293507430017 1.0486282543945313 2.2318264661276173 Q 1.0697246005483774 2.2711235815122324 1.1052988313176082 2.293874543050694 Q 1.140873062086839 2.3166255045891555 1.1838930620868389 2.3166255045891555 Q 1.226913062086839 2.3166255045891555 1.2624872928560698 2.2934608892045403 Q 1.2980615236253006 2.270296273819925 1.3195715236253005 2.2301718507430017 Q 1.3410815236253004 2.190047427666079 1.3410815236253004 2.14289088920454 Q 1.3410815236253004 2.094907043050694 1.3195715236253005 2.055196273819925 Q 1.2980615236253006 2.0154855045891558 1.2624872928560698 1.9923208892045403 Q 1.226913062086839 1.9691562738199249 1.1838930620868389 1.9691562738199249 Q 1.140873062086839 1.9691562738199249 1.105712485163762 1.9931481968968479 Q 1.0705519082406851 2.017140119973771 1.0490419082406852 2.0564372353583864 Q 1.027531908240685 2.095734350743002 1.027531908240685 2.1445455045891557 M 1.6769442091721753 2.366263966127617 Q 1.6306149784029447 2.366263966127617 1.5913178630183293 2.3484768507430016 Q 1.5520207476337138 2.330689735358386 1.5234786322490985 2.299665696896848 Q 1.494936516864483 2.2686416584353095 1.479217670710637 2.228517235358386 Q 1.4634988245567908 2.1883928122814633 1.4634988245567908 2.143718196896848 Q 1.4634988245567908 2.097388966127617 1.479217670710637 2.057264543050694 Q 1.494936516864483 2.017140119973771 1.5238922860952524 1.9861160815122325 Q 1.5528480553260215 1.9550920430506942 1.5921451707106369 1.9373049276660788 Q 1.6314422860952524 1.9195178122814633 1.6777715168644831 1.9195178122814633 Q 1.724100747633714 1.9195178122814633 1.7629842091721755 1.9373049276660788 Q 1.801867670710637 1.9550920430506942 1.8308234399414063 1.9861160815122325 Q 1.8597792091721754 2.017140119973771 1.8754980553260217 2.057264543050694 Q 1.8912169014798677 2.097388966127617 1.8912169014798677 2.143718196896848 Q 1.8912169014798677 2.1883928122814633 1.8754980553260217 2.228517235358386 Q 1.8597792091721754 2.2686416584353095 1.8312370937875602 2.299665696896848 Q 1.8026949784029447 2.330689735358386 1.7633978630183293 2.3484768507430016 Q 1.724100747633714 2.366263966127617 1.6769442091721753 2.366263966127617 M 1.5205830553260216 2.1445455045891557 Q 1.5205830553260216 2.1925293507430017 1.5416794014798678 2.2318264661276173 Q 1.5627757476337139 2.2711235815122324 1.5983499784029447 2.293874543050694 Q 1.6339242091721755 2.3166255045891555 1.6769442091721753 2.3166255045891555 Q 1.7199642091721754 2.3166255045891555 1.7555384399414062 2.2934608892045403 Q 1.7911126707106368 2.270296273819925 1.812622670710637 2.2301718507430017 Q 1.834132670710637 2.190047427666079 1.834132670710637 2.14289088920454 Q 1.834132670710637 2.094907043050694 1.812622670710637 2.055196273819925 Q 1.7911126707106368 2.0154855045891558 1.7555384399414062 1.9923208892045403 Q 1.7199642091721754 1.9691562738199249 1.6769442091721753 1.9691562738199249 Q 1.6339242091721755 1.9691562738199249 1.5987636322490986 1.9931481968968479 Q 1.5636030553260216 2.017140119973771 1.5420930553260215 2.0564372353583864 Q 1.5205830553260216 2.095734350743002 1.5205830553260216 2.1445455045891557 M 2.1278026639498195 2.366263966127617 Q 2.0748549716421274 2.366263966127617 2.0293530485652043 2.3488905045891557 Q 1.9838511254882811 2.331517043050694 1.9507588177959734 2.295942812281463 L 1.9739234331805888 2.256232043050694 Q 2.0103249716421274 2.2901516584353097 2.0471401639498197 2.3054568507430018 Q 2.083955356257512 2.320762043050694 2.1253207408728967 2.320762043050694 Q 2.1757865101036655 2.320762043050694 2.207224202411358 2.3004930045891556 Q 2.2386618947190504 2.2802239661276174 2.2386618947190504 2.2421678122814632 Q 2.2386618947190504 2.2165212738199247 2.2233567024113583 2.202870696896848 Q 2.2080515101036657 2.189220119973771 2.1795093947190503 2.18053338920454 Q 2.150967279334435 2.1718466584353093 2.111256510103666 2.161918966127617 Q 2.06658189471905 2.149509350743002 2.0363851639498196 2.135858773819925 Q 2.006188433180589 2.122208196896848 1.9908832408728965 2.1011118507430018 Q 1.9755780485652041 2.0800155045891557 1.9755780485652041 2.0460958892045404 Q 1.9755780485652041 2.003903196896848 1.9966743947190504 1.9761883892045402 Q 2.0177707408728964 1.9484735815122325 2.0545859331805887 1.933995696896848 Q 2.091401125488281 1.9195178122814633 2.136903048565204 1.9195178122814633 Q 2.1865415101036656 1.9195178122814633 2.2245976639498197 1.9352366584353096 Q 2.2626538177959734 1.9509555045891556 2.2866457408728964 1.9790839661276172 L 2.259344587026743 2.017140119973771 Q 2.236179971642127 1.990666273819925 2.204328625488281 1.9778430045891557 Q 2.172477279334435 1.9650197353583865 2.1335938177959735 1.9650197353583865 Q 2.107119971642127 1.9650197353583865 2.083128048565204 1.9720518507430018 Q 2.059136125488281 1.9790839661276172 2.0438309331805886 1.995216466127617 Q 2.0285257408728965 2.011348966127617 2.0285257408728965 2.0394774276660788 Q 2.0285257408728965 2.062642043050694 2.0401080485652043 2.0754653122814632 Q 2.0516903562575117 2.0882885815122325 2.0748549716421274 2.0969753122814634 Q 2.0980195870267426 2.1056620430506943 2.131939202411358 2.1155897353583866 Q 2.180750356257512 2.1288266584353095 2.2171518947190503 2.1424772353583865 Q 2.253553433180589 2.156127812281463 2.2734088177959735 2.1776378122814632 Q 2.293264202411358 2.1991478122814634 2.293264202411358 2.238031273819925 Q 2.293264202411358 2.2984247353583864 2.247762279334435 2.3323443507430017 Q 2.202260356257512 2.366263966127617 2.1278026639498195 2.366263966127617 M 2.572870368840144 2.366263966127617 Q 2.5265411380709137 2.366263966127617 2.486830368840144 2.3484768507430016 Q 2.447119599609375 2.330689735358386 2.4181638303786057 2.299665696896848 Q 2.3892080611478366 2.2686416584353095 2.3730755611478367 2.2281035815122325 Q 2.356943061147837 2.1875655045891556 2.356943061147837 2.141236273819925 Q 2.356943061147837 2.0808428122814635 2.384657868840144 2.030377043050694 Q 2.412372676532452 1.979911273819925 2.461183830378606 1.9497145430506941 Q 2.5099949842247598 1.9195178122814633 2.5720430611478364 1.9195178122814633 Q 2.635745753455529 1.9195178122814633 2.683315945763221 1.950128196896848 Q 2.7308861380709137 1.9807385815122327 2.7581872919170674 2.030790696896848 Q 2.785488445763221 2.0808428122814635 2.785488445763221 2.1404089661276173 Q 2.785488445763221 2.1470274276660786 2.785488445763221 2.1532322353583866 Q 2.785488445763221 2.159437043050694 2.7846611380709136 2.162746273819925 L 2.415681907301683 2.162746273819925 Q 2.4198184457632212 2.2090755045891557 2.441742099609375 2.24506338920454 Q 2.463665753455529 2.2810512738199247 2.498826330378606 2.302147619973771 Q 2.5339869073016827 2.323243966127617 2.5753522919170675 2.323243966127617 Q 2.6175449842247596 2.323243966127617 2.6551874842247596 2.301733966127617 Q 2.6928299842247596 2.2802239661276174 2.707721522686298 2.2454770430506943 L 2.756532676532452 2.258713966127617 Q 2.743295753455529 2.289324350743002 2.715994599609375 2.3141435815122327 Q 2.6886934457632212 2.3389628122814634 2.651878253455529 2.3526133892045404 Q 2.6150630611478367 2.366263966127617 2.572870368840144 2.366263966127617 M 2.4140272919170673 2.122208196896848 L 2.732540753455529 2.122208196896848 Q 2.729231522686298 2.0750516584353096 2.7073078688401444 2.0394774276660788 Q 2.6853842149939906 2.003903196896848 2.6502236380709134 1.9836341584353094 Q 2.6150630611478367 1.963365119973771 2.572870368840144 1.963365119973771 Q 2.530677676532452 1.963365119973771 2.495930753455529 1.9836341584353094 Q 2.461183830378606 2.003903196896848 2.4392601765324518 2.0398910815122324 Q 2.417336522686298 2.0758789661276174 2.4140272919170673 2.122208196896848 M 3.0874577732497 2.490360119973771 Q 3.0990400809420073 2.4911874276660786 3.1097950809420074 2.4916010815122327 Q 3.1205500809420075 2.4920147353583864 3.1255139270958536 2.490360119973771 Q 3.135441619403546 2.4887055045891557 3.1445420040189305 2.4787778122814634 Q 3.153642388634315 2.468850119973771 3.1660520040189306 2.4407216584353093 Q 3.1784616194035458 2.412593196896848 3.2007989270958537 2.3579908892045403 L 3.0130000809420077 1.9269635815122326 L 3.0725662347881615 1.9269635815122326 L 3.2305820040189306 2.300079350743002 L 3.3761881578650845 1.9269635815122326 L 3.4324450809420073 1.9269635815122326 L 3.2090720040189304 2.482914350743002 Q 3.2032808501727765 2.498633196896848 3.191698542480469 2.512283773819925 Q 3.1801162347881613 2.5259343507430017 3.1631564270958537 2.5337937738199248 Q 3.146196619403546 2.541653196896848 3.1213773886343152 2.5424805045891556 Q 3.113931619403546 2.5433078122814634 3.1060721963266227 2.5428941584353093 Q 3.0982127732496996 2.5424805045891556 3.0874577732497 2.54082588920454 L 3.0874577732497 2.490360119973771 M 3.6798185640775243 2.366263966127617 Q 3.6334893333082934 2.366263966127617 3.594192217923678 2.3484768507430016 Q 3.5548951025390627 2.330689735358386 3.5263529871544472 2.299665696896848 Q 3.4978108717698317 2.2686416584353095 3.4820920256159855 2.228517235358386 Q 3.4663731794621397 2.1883928122814633 3.4663731794621397 2.143718196896848 Q 3.4663731794621397 2.097388966127617 3.4820920256159855 2.057264543050694 Q 3.4978108717698317 2.017140119973771 3.526766641000601 1.9861160815122325 Q 3.5557224102313705 1.9550920430506942 3.5950195256159856 1.9373049276660788 Q 3.634316641000601 1.9195178122814633 3.6806458717698316 1.9195178122814633 Q 3.7269751025390625 1.9195178122814633 3.765858564077524 1.9373049276660788 Q 3.804742025615986 1.9550920430506942 3.833697794846755 1.9861160815122325 Q 3.862653564077524 2.017140119973771 3.8783724102313704 2.057264543050694 Q 3.8940912563852166 2.097388966127617 3.8940912563852166 2.143718196896848 Q 3.8940912563852166 2.1883928122814633 3.8783724102313704 2.228517235358386 Q 3.862653564077524 2.2686416584353095 3.8341114486929087 2.299665696896848 Q 3.805569333308293 2.330689735358386 3.766272217923678 2.3484768507430016 Q 3.7269751025390625 2.366263966127617 3.6798185640775243 2.366263966127617 M 3.5234574102313703 2.1445455045891557 Q 3.5234574102313703 2.1925293507430017 3.5445537563852163 2.2318264661276173 Q 3.565650102539063 2.2711235815122324 3.601224333308293 2.293874543050694 Q 3.636798564077524 2.3166255045891555 3.6798185640775243 2.3166255045891555 Q 3.722838564077524 2.3166255045891555 3.758412794846755 2.2934608892045403 Q 3.7939870256159858 2.270296273819925 3.8154970256159855 2.2301718507430017 Q 3.8370070256159856 2.190047427666079 3.8370070256159856 2.14289088920454 Q 3.8370070256159856 2.094907043050694 3.8154970256159855 2.055196273819925 Q 3.7939870256159858 2.0154855045891558 3.758412794846755 1.9923208892045403 Q 3.722838564077524 1.9691562738199249 3.6798185640775243 1.9691562738199249 Q 3.636798564077524 1.9691562738199249 3.6016379871544473 1.9931481968968479 Q 3.56647741023137 2.017140119973771 3.5449674102313704 2.0564372353583864 Q 3.5234574102313703 2.095734350743002 3.5234574102313703 2.1445455045891557 M 3.9850708650090145 2.1801197353583865 L 3.9850708650090145 1.9269635815122326 L 4.041327788085938 1.9269635815122326 L 4.041327788085938 2.1701920430506942 Q 4.041327788085938 2.2438224276660788 4.066560672701322 2.2802239661276174 Q 4.091793557316707 2.3166255045891555 4.141432018855168 2.3166255045891555 Q 4.174524326547476 2.3166255045891555 4.205548365009014 2.302147619973771 Q 4.236572403470553 2.2876697353583864 4.260564326547477 2.2607822353583864 Q 4.2845562496244 2.2338947353583865 4.296965865009015 2.1983205045891556 L 4.296965865009015 1.9269635815122326 L 4.3532227880859375 1.9269635815122326 L 4.3532227880859375 2.2901516584353097 Q 4.3532227880859375 2.301733966127617 4.358186634239784 2.3071114661276173 Q 4.36315048039363 2.312488966127617 4.373078172701322 2.313316273819925 L 4.373078172701322 2.3579908892045403 Q 4.36315048039363 2.358818196896848 4.357359326547476 2.3592318507430017 Q 4.351568172701322 2.359645504589156 4.346604326547476 2.359645504589156 Q 4.330058172701323 2.3579908892045403 4.318062211162861 2.3464085815122324 Q 4.306066249624399 2.334826273819925 4.305238941932092 2.318280119973771 L 4.303584326547476 2.2603685815122327 Q 4.275455865009015 2.3100070430506943 4.2270583650090146 2.3381355045891556 Q 4.1786608650090145 2.366263966127617 4.122403941932092 2.366263966127617 Q 4.054564711162861 2.366263966127617 4.019817788085938 2.319107427666079 Q 3.9850708650090145 2.27195088920454 3.9850708650090145 2.1801197353583865 M 4.696550632887621 1.976602043050694 Q 4.640293709810697 1.9782566584353094 4.597687363656851 2.0080397353583863 Q 4.555081017503005 2.0378228122814632 4.537707555964544 2.089943196896848 L 4.537707555964544 2.3579908892045403 L 4.48145063288762 2.3579908892045403 L 4.48145063288762 1.9269635815122326 L 4.534398325195313 1.9269635815122326 L 4.534398325195313 2.030377043050694 Q 4.55673563288762 1.984875119973771 4.5935508251953125 1.9567466584353095 Q 4.630366017503005 1.9286181968968479 4.6717314021183896 1.9253089661276173 Q 4.680004479041466 1.9244816584353095 4.686209286733774 1.9244816584353095 Q 4.692414094426082 1.9244816584353095 4.696550632887621 1.9253089661276173 L 4.696550632887621 1.976602043050694 M 4.936476326998197 2.143718196896848 Q 4.936476326998197 2.0824974276660786 4.961709211613582 2.0316180045891556 Q 4.986942096228966 1.9807385815122327 5.031616711613582 1.950128196896848 Q 5.076291326998197 1.9195178122814633 5.133375557767428 1.9195178122814633 Q 5.187150557767428 1.9195178122814633 5.229756903921274 1.9480599276660788 Q 5.27236325007512 1.976602043050694 5.296355173152043 2.017140119973771 L 5.296355173152043 1.7540562738199248 L 5.352612096228966 1.7540562738199248 L 5.352612096228966 2.2901516584353097 Q 5.352612096228966 2.301733966127617 5.357575942382812 2.3071114661276173 Q 5.362539788536658 2.312488966127617 5.37246748084435 2.313316273819925 L 5.37246748084435 2.3579908892045403 Q 5.355921326998197 2.3604728122814636 5.346820942382813 2.359645504589156 Q 5.329447480844351 2.358818196896848 5.316210557767428 2.3455812738199247 Q 5.302973634690504 2.3323443507430017 5.302973634690504 2.3166255045891555 L 5.302973634690504 2.2744328122814634 Q 5.277327096228966 2.3166255045891555 5.233479788536658 2.3414447353583863 Q 5.189632480844351 2.366263966127617 5.142475942382813 2.366263966127617 Q 5.097801326998197 2.366263966127617 5.060158826998197 2.348063196896848 Q 5.022516326998197 2.329862427666079 4.99480151930589 2.2984247353583864 Q 4.9670867116135815 2.266987043050694 4.951781519305889 2.226862619973771 Q 4.936476326998197 2.186738196896848 4.936476326998197 2.143718196896848 M 5.296355173152043 2.2099028122814635 L 5.296355173152043 2.0767062738199247 Q 5.2856001731520434 2.0469231968968478 5.2616082500751205 2.022517619973771 Q 5.237616326998197 1.998112043050694 5.207419596228966 1.9836341584353094 Q 5.177222865459735 1.9691562738199249 5.1474397885366585 1.9691562738199249 Q 5.112692865459735 1.9691562738199249 5.084564403921274 1.9836341584353094 Q 5.056435942382812 1.998112043050694 5.0361669039212735 2.0229312738199248 Q 5.015897865459736 2.0477505045891555 5.005142865459735 2.079188196896848 Q 4.994387865459736 2.1106258892045404 4.994387865459736 2.143718196896848 Q 4.994387865459736 2.178465119973771 5.006383826998197 2.2099028122814635 Q 5.018379788536659 2.2413405045891555 5.040717096228966 2.2657460815122326 Q 5.0630544039212735 2.2901516584353097 5.092010173152043 2.3033885815122326 Q 5.120965942382813 2.3166255045891555 5.154885557767428 2.3166255045891555 Q 5.176395557767428 2.3166255045891555 5.199560173152043 2.3083524276660787 Q 5.222724788536659 2.300079350743002 5.243821134690505 2.285601466127617 Q 5.264917480844351 2.2711235815122324 5.278981711613581 2.2512681968968478 Q 5.293045942382812 2.231412812281463 5.296355173152043 2.2099028122814635 M 5.695952463754508 1.976602043050694 Q 5.639695540677584 1.9782566584353094 5.597089194523738 2.0080397353583863 Q 5.554482848369892 2.0378228122814632 5.537109386831431 2.089943196896848 L 5.537109386831431 2.3579908892045403 L 5.480852463754507 2.3579908892045403 L 5.480852463754507 1.9269635815122326 L 5.5338001560622 1.9269635815122326 L 5.5338001560622 2.030377043050694 Q 5.556137463754507 1.984875119973771 5.5929526560622 1.9567466584353095 Q 5.629767848369892 1.9286181968968479 5.671133232985277 1.9253089661276173 Q 5.679406309908353 1.9244816584353095 5.685611117600661 1.9244816584353095 Q 5.691815925292969 1.9244816584353095 5.695952463754508 1.9253089661276173 L 5.695952463754508 1.976602043050694 M 5.944990257286659 2.366263966127617 Q 5.898661026517429 2.366263966127617 5.85895025728666 2.3484768507430016 Q 5.81923948805589 2.330689735358386 5.790283718825121 2.299665696896848 Q 5.761327949594352 2.2686416584353095 5.745195449594352 2.2281035815122325 Q 5.7290629495943515 2.1875655045891556 5.7290629495943515 2.141236273819925 Q 5.7290629495943515 2.0808428122814635 5.75677775728666 2.030377043050694 Q 5.784492564978967 1.979911273819925 5.833303718825121 1.9497145430506941 Q 5.882114872671274 1.9195178122814633 5.944162949594352 1.9195178122814633 Q 6.007865641902044 1.9195178122814633 6.055435834209736 1.950128196896848 Q 6.103006026517429 1.9807385815122327 6.130307180363582 2.030790696896848 Q 6.157608334209736 2.0808428122814635 6.157608334209736 2.1404089661276173 Q 6.157608334209736 2.1470274276660786 6.157608334209736 2.1532322353583866 Q 6.157608334209736 2.159437043050694 6.156781026517429 2.162746273819925 L 5.787801795748198 2.162746273819925 Q 5.791938334209736 2.2090755045891557 5.813861988055891 2.24506338920454 Q 5.835785641902044 2.2810512738199247 5.870946218825121 2.302147619973771 Q 5.906106795748197 2.323243966127617 5.947472180363582 2.323243966127617 Q 5.989664872671275 2.323243966127617 6.027307372671275 2.301733966127617 Q 6.064949872671275 2.2802239661276174 6.079841411132813 2.2454770430506943 L 6.128652564978967 2.258713966127617 Q 6.115415641902044 2.289324350743002 6.08811448805589 2.3141435815122327 Q 6.060813334209737 2.3389628122814634 6.023998141902044 2.3526133892045404 Q 5.987182949594351 2.366263966127617 5.944990257286659 2.366263966127617 M 5.786147180363582 2.122208196896848 L 6.104660641902044 2.122208196896848 Q 6.101351411132813 2.0750516584353096 6.079427757286659 2.0394774276660788 Q 6.057504103440506 2.003903196896848 6.022343526517429 1.9836341584353094 Q 5.987182949594351 1.963365119973771 5.944990257286659 1.963365119973771 Q 5.902797564978967 1.963365119973771 5.868050641902044 1.9836341584353094 Q 5.833303718825121 2.003903196896848 5.811380064978967 2.0398910815122324 Q 5.7894564111328135 2.0758789661276174 5.786147180363582 2.122208196896848 M 6.210535424616888 2.2338947353583865 Q 6.210535424616888 2.1933566584353095 6.233700040001502 2.163987235358386 Q 6.256864655386118 2.1346178122814634 6.297816386155349 2.1184853122814635 Q 6.338768116924579 2.102352812281463 6.39254311692458 2.102352812281463 Q 6.423980809232272 2.102352812281463 6.457900424616887 2.1073166584353094 Q 6.491820040001503 2.1122805045891555 6.518293886155349 2.122208196896848 L 6.518293886155349 2.0858066584353097 Q 6.518293886155349 2.031204350743002 6.486028886155349 1.9989393507430018 Q 6.453763886155349 1.9666743507430018 6.3966796553861185 1.9666743507430018 Q 6.361932732309195 1.9666743507430018 6.328426770770734 1.979497619973771 Q 6.294920809232272 1.9923208892045403 6.2585192707707336 2.017140119973771 L 6.237009270770733 1.9774293507430019 Q 6.2792019630784255 1.9484735815122325 6.319740040001503 1.933995696896848 Q 6.3602781169245795 1.9195178122814633 6.4024708092322715 1.9195178122814633 Q 6.481892347693811 1.9195178122814633 6.528221578463041 1.9650197353583865 Q 6.574550809232272 2.0105216584353096 6.574550809232272 2.090770504589156 L 6.574550809232272 2.2901516584353097 Q 6.574550809232272 2.301733966127617 6.579514655386118 2.3071114661276173 Q 6.584478501539964 2.312488966127617 6.595233501539965 2.313316273819925 L 6.595233501539965 2.3579908892045403 Q 6.58613311692458 2.358818196896848 6.579514655386118 2.359645504589156 Q 6.572896193847656 2.3604728122814636 6.569586963078426 2.359645504589156 Q 6.548904270770733 2.358818196896848 6.538149270770734 2.3464085815122324 Q 6.527394270770733 2.3339989661276173 6.526566963078426 2.3199347353583866 L 6.525739655386118 2.288497043050694 Q 6.496783886155349 2.32572588920454 6.450454655386118 2.3459949276660788 Q 6.404125424616887 2.366263966127617 6.356141578463041 2.366263966127617 Q 6.314776193847656 2.366263966127617 6.281270232309195 2.3484768507430016 Q 6.247764270770734 2.330689735358386 6.229149847693811 2.3004930045891556 Q 6.210535424616888 2.270296273819925 6.210535424616888 2.2338947353583865 M 6.499265809232272 2.266987043050694 Q 6.508366193847657 2.2554047353583866 6.513330040001502 2.2446497353583865 Q 6.518293886155349 2.2338947353583865 6.518293886155349 2.2256216584353097 L 6.518293886155349 2.162746273819925 Q 6.490165424616888 2.1519912738199247 6.459968693847657 2.146200119973771 Q 6.429771963078426 2.1404089661276173 6.399161578463041 2.1404089661276173 Q 6.338768116924579 2.1404089661276173 6.301539270770734 2.1644008892045403 Q 6.2643104246168875 2.1883928122814633 6.2643104246168875 2.229758196896848 Q 6.2643104246168875 2.253750119973771 6.276720040001503 2.274846466127617 Q 6.289129655386118 2.295942812281463 6.313121578463041 2.30959338920454 Q 6.337113501539965 2.323243966127617 6.369378501539964 2.323243966127617 Q 6.409916578463041 2.323243966127617 6.445077155386118 2.307525119973771 Q 6.480237732309195 2.2918062738199247 6.499265809232272 2.266987043050694 M 7.338141670673076 2.3579908892045403 L 7.281884747596154 2.3579908892045403 L 7.281884747596154 2.1172443507430017 Q 7.281884747596154 2.0419593507430016 7.257892824519231 2.0063851199737712 Q 7.233900901442308 1.9708108892045404 7.186744362980769 1.9708108892045404 Q 7.137933209134616 1.9708108892045404 7.099463401442308 2.0055578122814635 Q 7.06099359375 2.0403047353583865 7.045274747596154 2.094907043050694 L 7.045274747596154 2.3579908892045403 L 6.98901782451923 2.3579908892045403 L 6.98901782451923 2.1172443507430017 Q 6.98901782451923 2.0411320430506943 6.9658532091346155 2.005971466127617 Q 6.94268859375 1.9708108892045404 6.894704747596154 1.9708108892045404 Q 6.846720901442308 1.9708108892045404 6.807837439903846 2.0047305045891557 Q 6.768953978365385 2.038650119973771 6.753235132211539 2.0940797353583864 L 6.753235132211539 2.3579908892045403 L 6.696978209134615 2.3579908892045403 L 6.696978209134615 1.9269635815122326 L 6.748271286057692 1.9269635815122326 L 6.748271286057692 2.0245858892045403 Q 6.775572439903846 1.974120119973771 6.818178786057692 1.9468189661276172 Q 6.8607851322115385 1.9195178122814633 6.912905516826923 1.9195178122814633 Q 6.966680516826923 1.9195178122814633 6.999772824519231 1.950128196896848 Q 7.032865132211539 1.9807385815122327 7.040310901442307 2.030377043050694 Q 7.070093978365384 1.9757747353583865 7.111873016826923 1.947646273819925 Q 7.153652055288461 1.9195178122814633 7.206599747596154 1.9195178122814633 Q 7.243001286057693 1.9195178122814633 7.268234170673077 1.9327547353583865 Q 7.2934670552884615 1.9459916584353094 7.308772247596154 1.9703972353583863 Q 7.324077439903846 1.9948028122814634 7.331109555288461 2.029136081512233 Q 7.338141670673076 2.0634693507430018 7.338141670673076 2.1056620430506943 L 7.338141670673076 2.3579908892045403 M 7.8899651924954926 2.366263966127617 Q 7.836190192495493 2.366263966127617 7.7935838463416465 2.3381355045891556 Q 7.7509775001878 2.3100070430506943 7.72615826941857 2.2686416584353095 L 7.72615826941857 2.534207427666079 L 7.669901346341646 2.534207427666079 L 7.669901346341646 1.9269635815122326 L 7.720367115572416 1.9269635815122326 L 7.720367115572416 2.0105216584353096 Q 7.746013654033955 1.9699835815122326 7.789033654033954 1.944750696896848 Q 7.832053654033954 1.9195178122814633 7.8808648078801085 1.9195178122814633 Q 7.925539423264723 1.9195178122814633 7.96276826941857 1.9381322353583865 Q 7.999997115572416 1.9567466584353095 8.02729826941857 1.9881843507430017 Q 8.054599423264724 2.019622043050694 8.069904615572415 2.059746466127617 Q 8.085209807880108 2.0998708892045403 8.085209807880108 2.14289088920454 Q 8.085209807880108 2.2032843507430018 8.06080423095703 2.2541637738199247 Q 8.036398654033954 2.305043196896848 7.992551346341647 2.3356535815122323 Q 7.948704038649339 2.366263966127617 7.8899651924954926 2.366263966127617 M 7.874246346341646 2.3166255045891555 Q 7.909820577110877 2.3166255045891555 7.9379490386493385 2.302147619973771 Q 7.966077500187801 2.2876697353583864 7.986346538649339 2.2628505045891556 Q 8.006615577110878 2.238031273819925 8.017370577110878 2.2070072353583865 Q 8.028125577110877 2.1759831968968477 8.028125577110877 2.14289088920454 Q 8.028125577110877 2.108143966127617 8.016129615572416 2.0767062738199247 Q 8.004133654033954 2.0452685815122327 7.981796346341646 2.0212766584353097 Q 7.959459038649339 1.9972847353583865 7.93050326941857 1.9832205045891556 Q 7.9015475001878 1.9691562738199249 7.867627884803185 1.9691562738199249 Q 7.846117884803185 1.9691562738199249 7.822953269418569 1.9774293507430019 Q 7.7997886540339545 1.9857024276660789 7.7786923078801085 2.001007619973771 Q 7.7575959617262615 2.0163128122814635 7.743531730957031 2.0353408892045404 Q 7.7294675001878 2.054368966127617 7.72615826941857 2.0758789661276174 L 7.72615826941857 2.208248196896848 Q 7.7393951924954925 2.2388585815122326 7.761732500187801 2.2632641584353097 Q 7.784069807880108 2.2876697353583864 7.813439230957031 2.302147619973771 Q 7.842808654033954 2.3166255045891555 7.874246346341646 2.3166255045891555 M 8.396281135817308 1.976602043050694 Q 8.340024212740385 1.9782566584353094 8.297417866586539 2.0080397353583863 Q 8.254811520432693 2.0378228122814632 8.23743805889423 2.089943196896848 L 8.23743805889423 2.3579908892045403 L 8.181181135817308 2.3579908892045403 L 8.181181135817308 1.9269635815122326 L 8.234128828125 1.9269635815122326 L 8.234128828125 2.030377043050694 Q 8.256466135817309 1.984875119973771 8.293281328125001 1.9567466584353095 Q 8.330096520432694 1.9286181968968479 8.371461905048077 1.9253089661276173 Q 8.379734981971154 1.9244816584353095 8.385939789663462 1.9244816584353095 Q 8.39214459735577 1.9244816584353095 8.396281135817308 1.9253089661276173 L 8.396281135817308 1.976602043050694 M 8.642837006272536 2.366263966127617 Q 8.596507775503307 2.366263966127617 8.557210660118692 2.3484768507430016 Q 8.517913544734075 2.330689735358386 8.489371429349461 2.299665696896848 Q 8.460829313964846 2.2686416584353095 8.445110467810999 2.228517235358386 Q 8.429391621657153 2.1883928122814633 8.429391621657153 2.143718196896848 Q 8.429391621657153 2.097388966127617 8.445110467810999 2.057264543050694 Q 8.460829313964846 2.017140119973771 8.489785083195613 1.9861160815122325 Q 8.518740852426383 1.9550920430506942 8.558037967810998 1.9373049276660788 Q 8.597335083195613 1.9195178122814633 8.643664313964845 1.9195178122814633 Q 8.689993544734076 1.9195178122814633 8.728877006272537 1.9373049276660788 Q 8.767760467810998 1.9550920430506942 8.796716237041768 1.9861160815122325 Q 8.825672006272537 2.017140119973771 8.841390852426382 2.057264543050694 Q 8.85710969858023 2.097388966127617 8.85710969858023 2.143718196896848 Q 8.85710969858023 2.1883928122814633 8.841390852426382 2.228517235358386 Q 8.825672006272537 2.2686416584353095 8.797129890887922 2.299665696896848 Q 8.768587775503306 2.330689735358386 8.729290660118691 2.3484768507430016 Q 8.689993544734076 2.366263966127617 8.642837006272536 2.366263966127617 M 8.486475852426384 2.1445455045891557 Q 8.486475852426384 2.1925293507430017 8.50757219858023 2.2318264661276173 Q 8.528668544734076 2.2711235815122324 8.564242775503306 2.293874543050694 Q 8.599817006272538 2.3166255045891555 8.642837006272536 2.3166255045891555 Q 8.685857006272537 2.3166255045891555 8.721431237041768 2.2934608892045403 Q 8.757005467810998 2.270296273819925 8.778515467811 2.2301718507430017 Q 8.800025467810999 2.190047427666079 8.800025467810999 2.14289088920454 Q 8.800025467810999 2.094907043050694 8.778515467811 2.055196273819925 Q 8.757005467810998 2.0154855045891558 8.721431237041768 1.9923208892045403 Q 8.685857006272537 1.9691562738199249 8.642837006272536 1.9691562738199249 Q 8.599817006272538 1.9691562738199249 8.56465642934946 1.9931481968968479 Q 8.529495852426383 2.017140119973771 8.507985852426383 2.0564372353583864 Q 8.486475852426384 2.095734350743002 8.486475852426384 2.1445455045891557 M 9.172289691819413 2.366263966127617 Q 9.118514691819414 2.366263966127617 9.075908345665567 2.3381355045891556 Q 9.033301999511721 2.3100070430506943 9.008482768742489 2.2686416584353095 L 9.008482768742489 2.534207427666079 L 8.952225845665566 2.534207427666079 L 8.952225845665566 1.9269635815122326 L 9.002691614896335 1.9269635815122326 L 9.002691614896335 2.0105216584353096 Q 9.028338153357874 1.9699835815122326 9.071358153357874 1.944750696896848 Q 9.114378153357874 1.9195178122814633 9.163189307204028 1.9195178122814633 Q 9.207863922588643 1.9195178122814633 9.24509276874249 1.9381322353583865 Q 9.282321614896336 1.9567466584353095 9.30962276874249 1.9881843507430017 Q 9.336923922588644 2.019622043050694 9.352229114896335 2.059746466127617 Q 9.367534307204028 2.0998708892045403 9.367534307204028 2.14289088920454 Q 9.367534307204028 2.2032843507430018 9.34312873028095 2.2541637738199247 Q 9.318723153357874 2.305043196896848 9.274875845665566 2.3356535815122323 Q 9.231028537973259 2.366263966127617 9.172289691819413 2.366263966127617 M 9.156570845665566 2.3166255045891555 Q 9.192145076434798 2.3166255045891555 9.22027353797326 2.302147619973771 Q 9.24840199951172 2.2876697353583864 9.26867103797326 2.2628505045891556 Q 9.288940076434798 2.238031273819925 9.299695076434798 2.2070072353583865 Q 9.310450076434797 2.1759831968968477 9.310450076434797 2.14289088920454 Q 9.310450076434797 2.108143966127617 9.298454114896336 2.0767062738199247 Q 9.286458153357874 2.0452685815122327 9.264120845665566 2.0212766584353097 Q 9.241783537973259 1.9972847353583865 9.212827768742489 1.9832205045891556 Q 9.183871999511721 1.9691562738199249 9.149952384127104 1.9691562738199249 Q 9.128442384127105 1.9691562738199249 9.10527776874249 1.9774293507430019 Q 9.082113153357874 1.9857024276660789 9.061016807204028 2.001007619973771 Q 9.039920461050182 2.0163128122814635 9.02585623028095 2.0353408892045404 Q 9.01179199951172 2.054368966127617 9.008482768742489 2.0758789661276174 L 9.008482768742489 2.208248196896848 Q 9.021719691819413 2.2388585815122326 9.04405699951172 2.2632641584353097 Q 9.066394307204028 2.2876697353583864 9.095763730280952 2.302147619973771 Q 9.125133153357874 2.3166255045891555 9.156570845665566 2.3166255045891555 M 9.64964986591046 2.366263966127617 Q 9.603320635141229 2.366263966127617 9.56360986591046 2.3484768507430016 Q 9.52389909667969 2.330689735358386 9.49494332744892 2.299665696896848 Q 9.465987558218151 2.2686416584353095 9.449855058218152 2.2281035815122325 Q 9.433722558218152 2.1875655045891556 9.433722558218152 2.141236273819925 Q 9.433722558218152 2.0808428122814635 9.46143736591046 2.030377043050694 Q 9.489152173602767 1.979911273819925 9.53796332744892 1.9497145430506941 Q 9.586774481295075 1.9195178122814633 9.648822558218152 1.9195178122814633 Q 9.712525250525843 1.9195178122814633 9.760095442833537 1.950128196896848 Q 9.807665635141229 1.9807385815122327 9.834966788987382 2.030790696896848 Q 9.862267942833537 2.0808428122814635 9.862267942833537 2.1404089661276173 Q 9.862267942833537 2.1470274276660786 9.862267942833537 2.1532322353583866 Q 9.862267942833537 2.159437043050694 9.861440635141228 2.162746273819925 L 9.492461404371998 2.162746273819925 Q 9.496597942833535 2.2090755045891557 9.51852159667969 2.24506338920454 Q 9.540445250525844 2.2810512738199247 9.575605827448921 2.302147619973771 Q 9.610766404371997 2.323243966127617 9.652131788987383 2.323243966127617 Q 9.694324481295075 2.323243966127617 9.731966981295075 2.301733966127617 Q 9.769609481295074 2.2802239661276174 9.784501019756613 2.2454770430506943 L 9.833312173602767 2.258713966127617 Q 9.820075250525843 2.289324350743002 9.79277409667969 2.3141435815122327 Q 9.765472942833537 2.3389628122814634 9.728657750525844 2.3526133892045404 Q 9.691842558218152 2.366263966127617 9.64964986591046 2.366263966127617 M 9.490806788987383 2.122208196896848 L 9.809320250525843 2.122208196896848 Q 9.806011019756612 2.0750516584353096 9.784087365910459 2.0394774276660788 Q 9.762163712064305 2.003903196896848 9.727003135141228 1.9836341584353094 Q 9.691842558218152 1.963365119973771 9.64964986591046 1.963365119973771 Q 9.607457173602766 1.963365119973771 9.572710250525844 1.9836341584353094 Q 9.53796332744892 2.003903196896848 9.516039673602767 2.0398910815122324 Q 9.494116019756612 2.0758789661276174 9.490806788987383 2.122208196896848 M 10.16504195631761 1.976602043050694 Q 10.108785033240688 1.9782566584353094 10.066178687086841 2.0080397353583863 Q 10.023572340932995 2.0378228122814632 10.006198879394534 2.089943196896848 L 10.006198879394534 2.3579908892045403 L 9.94994195631761 2.3579908892045403 L 9.94994195631761 1.9269635815122326 L 10.002889648625302 1.9269635815122326 L 10.002889648625302 2.030377043050694 Q 10.025226956317612 1.984875119973771 10.062042148625304 1.9567466584353095 Q 10.098857340932996 1.9286181968968479 10.14022272554838 1.9253089661276173 Q 10.148495802471457 1.9244816584353095 10.154700610163765 1.9244816584353095 Q 10.160905417856073 1.9244816584353095 10.16504195631761 1.9253089661276173 L 10.16504195631761 1.976602043050694 M 10.447992093975364 2.337308196896848 Q 10.441373632436903 2.339790119973771 10.427309401667673 2.3464085815122324 Q 10.413245170898442 2.353027043050694 10.393389786283056 2.3579908892045403 Q 10.373534401667673 2.3629547353583864 10.350369786283057 2.3629547353583864 Q 10.326377863206133 2.3629547353583864 10.305281517052288 2.353854350743002 Q 10.284185170898441 2.3447539661276173 10.271775555513825 2.326139543050694 Q 10.25936594012921 2.307525119973771 10.25936594012921 2.2802239661276174 L 10.25936594012921 1.971638196896848 L 10.199799786283057 1.971638196896848 L 10.199799786283057 1.9269635815122326 L 10.25936594012921 1.9269635815122326 L 10.25936594012921 1.7813574276660789 L 10.315622863206134 1.7813574276660789 L 10.315622863206134 1.9269635815122326 L 10.414899786283057 1.9269635815122326 L 10.414899786283057 1.971638196896848 L 10.315622863206134 1.971638196896848 L 10.315622863206134 2.264505119973771 Q 10.317277478590748 2.2876697353583864 10.332582670898441 2.299252043050694 Q 10.347887863206134 2.3108343507430016 10.367743247821519 2.3108343507430016 Q 10.390907863206133 2.3108343507430016 10.40993594012921 2.302974927666079 Q 10.428964017052287 2.295115504589156 10.433100555513825 2.2918062738199247 L 10.447992093975364 2.337308196896848 M 10.543977964430592 2.490360119973771 Q 10.5555602721229 2.4911874276660786 10.566315272122901 2.4916010815122327 Q 10.577070272122901 2.4920147353583864 10.582034118276747 2.490360119973771 Q 10.591961810584438 2.4887055045891557 10.601062195199823 2.4787778122814634 Q 10.610162579815208 2.468850119973771 10.622572195199824 2.4407216584353093 Q 10.634981810584438 2.412593196896848 10.657319118276746 2.3579908892045403 L 10.469520272122901 1.9269635815122326 L 10.529086425969055 1.9269635815122326 L 10.687102195199824 2.300079350743002 L 10.832708349045978 1.9269635815122326 L 10.8889652721229 1.9269635815122326 L 10.665592195199824 2.482914350743002 Q 10.65980104135367 2.498633196896848 10.648218733661363 2.512283773819925 Q 10.636636425969055 2.5259343507430017 10.619676618276747 2.5337937738199248 Q 10.60271681058444 2.541653196896848 10.577897579815208 2.5424805045891556 Q 10.570451810584439 2.5433078122814634 10.562592387507516 2.5428941584353093 Q 10.554732964430594 2.5424805045891556 10.543977964430592 2.54082588920454 L 10.543977964430592 2.490360119973771" fill="#8813ea" fill-rule="nonzero"></path></g></g><defs><clipPath id="SvgjsClipPath1001"><path d=" M -5.960650903970926 -1.6013300073831926 h 5.5606509039709255 v 5.5606509039709255 h -5.5606509039709255 Z"></path></clipPath><clipPath id="SvgjsClipPath1000ad56f139-489a-4ccd-80c3-fae104ccccd5"><path d=" M -4.634435663373861 -0.0184933966803027 L -1.7262152405970665 -0.0184933966803027 L -1.7262152405970665 2.3764842858848425 L -4.634435663373861 2.3764842858848425 Z"></path></clipPath></defs></svg>